<svg xmlns="http://www.w3.org/2000/svg" viewBox="0 0 34.51 10.46"><title>Asset 2</title><g id="Layer_2" data-name="Layer 2"><g id="Layer_1-2" data-name="Layer 1"><path d="M0,7.17v-6A1,1,0,0,1,1.09.11h4A.88.88,0,0,1,6,1a.88.88,0,0,1-.86.87h-3V3.18H5A.88.88,0,0,1,5,4.93H2.06V7.17A1,1,0,0,1,1,8.22,1,1,0,0,1,0,7.17Z" fill="#007bff"/><path d="M12.2,4.49V7.24a.94.94,0,0,1-.92,1,1,1,0,0,1-.94-.69,2.35,2.35,0,0,1-1.79.72,1.92,1.92,0,0,1-2-1.91,1.79,1.79,0,0,1,2-1.82,2.31,2.31,0,0,1,1.8.67V4.46c0-.5-.43-.84-1.17-.84A2.52,2.52,0,0,0,8,3.93.66.66,0,0,1,7.68,4a.69.69,0,0,1-.32-1.29A4.39,4.39,0,0,1,9.5,2.17C10.89,2.17,12.2,2.69,12.2,4.49ZM10.35,6.62V6.1a1.32,1.32,0,0,0-1-.4c-.49,0-.92.21-.92.67s.43.67.92.67A1.26,1.26,0,0,0,10.35,6.62Z" fill="#007bff"/><path d="M13.22,7.08A.75.75,0,0,1,14,6.33a.7.7,0,0,1,.33.09,3.8,3.8,0,0,0,1.56.44c.55,0,.78-.18.78-.43s-.39-.41-1-.51c-1-.16-2.38-.37-2.38-1.84,0-1,.88-1.91,2.48-1.91a4,4,0,0,1,1.89.46.68.68,0,0,1,.38.61.69.69,0,0,1-.68.69A.73.73,0,0,1,17,3.85a2.72,2.72,0,0,0-1.24-.32c-.44,0-.74.14-.74.39s.32.36.93.47c1,.17,2.44.41,2.44,1.94,0,1.11-1,1.92-2.63,1.92a4.69,4.69,0,0,1-2.14-.51A.77.77,0,0,1,13.22,7.08Z" fill="#007bff"/><path d="M22.89,7.41a.77.77,0,0,1-.58.75,2.83,2.83,0,0,1-.76.09,1.58,1.58,0,0,1-1.81-1.7V3.92h-.26a.81.81,0,1,1,0-1.61h.26V1.55a.92.92,0,1,1,1.83,0v.76h.48a.81.81,0,1,1,0,1.61h-.48V6a.52.52,0,0,0,.48.59h.18A.74.74,0,0,1,22.89,7.41Z" fill="#007bff"/><path d="M23.68,7.29V.92a.92.92,0,0,1,1.84,0V7.29a.92.92,0,1,1-1.84,0Z" fill="#007bff"/><path d="M27.34,8.84h.08c.39,0,.65-.1.75-.33l.14-.31-1.9-4.72a.89.89,0,0,1,.82-1.26.85.85,0,0,1,.84.57l1.2,3.31,1.17-3.31a.87.87,0,0,1,.84-.57.89.89,0,0,1,.91.91,1.47,1.47,0,0,1-.08.35l-2.2,5.47a2.28,2.28,0,0,1-2.24,1.52h-.14a.86.86,0,0,1-.9-.85A.75.75,0,0,1,27.34,8.84Z" fill="#007bff"/><path d="M33.38,6a1.13,1.13,0,1,1-1.12,1.12A1.14,1.14,0,0,1,33.38,6Z" fill="#007bff"/></g></g></svg>